<svg xmlns="http://www.w3.org/2000/svg" width="256" height="256" viewBox="0 0 256 256" role="img" aria-label="sin-terceros"><title>sin-terceros</title><rect width="256" height="256" rx="60" fill="#242938"/><g transform="translate(58 58) scale(5.8333)" fill="none" stroke="#E0457B" stroke-width="2" stroke-linecap="round" stroke-linejoin="round">
  <path d="M12 20h.01" />
  <path d="M8.5 16.429a5 5 0 0 1 7 0" />
  <path d="M5 12.859a10 10 0 0 1 5.17-2.69" />
  <path d="M19 12.859a10 10 0 0 0-2.007-1.523" />
  <path d="M2 8.82a15 15 0 0 1 4.177-2.643" />
  <path d="M22 8.82a15 15 0 0 0-11.288-3.764" />
  <path d="m2 2 20 20" />
</g></svg>
